<svg width="71" height="70" viewBox="0 0 71 70" fill="none" xmlns="http://www.w3.org/2000/svg">
<g id="Group 2">
<circle id="Ellipse 5" cx="35.5" cy="35" r="34" fill="white" stroke="#E4BB52" stroke-width="2"/>
<g id="Group 3">
<path id="Vector" d="M30.1671 14.7371V27.8269C26.1921 29.071 22.8024 31.6639 20.6098 35.1377C18.4171 38.6115 17.5658 42.7375 18.2094 46.7712C18.853 50.805 20.9492 54.481 24.1197 57.136C27.2903 59.7909 31.3264 61.25 35.5 61.25C39.6736 61.25 43.7097 59.7909 46.8803 57.136C50.0508 54.481 52.147 50.805 52.7906 46.7712C53.4342 42.7375 52.5829 38.6115 50.3902 35.1377C48.1975 31.6639 44.8079 29.071 40.8328 27.8269V12.9634" stroke="#1D1D1B" stroke-width="0.843149" stroke-miterlimit="10"/>
<path id="Vector_2" d="M41.2924 12.8591H29.7078C29.4317 12.8601 29.1581 12.8077 28.9028 12.7048C28.6475 12.602 28.4155 12.4506 28.2202 12.2597C28.025 12.0687 27.8703 11.8417 27.7652 11.592C27.66 11.3422 27.6064 11.0746 27.6075 10.8045C27.6075 10.2596 27.8288 9.73701 28.2227 9.3517C28.6166 8.9664 29.1508 8.74994 29.7078 8.74994H41.2924C41.8494 8.74994 42.3837 8.9664 42.7775 9.3517C43.1714 9.73701 43.3927 10.2596 43.3927 10.8045C43.3938 11.0746 43.3402 11.3422 43.2351 11.592C43.1299 11.8417 42.9752 12.0687 42.78 12.2597C42.5847 12.4506 42.3528 12.602 42.0974 12.7048C41.8421 12.8077 41.5685 12.8601 41.2924 12.8591Z" stroke="#1D1D1B" stroke-width="0.843149" stroke-miterlimit="10"/>
<path id="Vector_3" d="M40.7344 30.0097C40.7344 30.0097 42.7855 37.4334 38.6833 41.1493C34.5811 44.8652 28.2474 44.2632 25.2692 55.3145C26.9562 56.7887 28.9554 57.88 31.1238 58.5102C33.2922 59.1404 35.5762 59.2941 37.8124 58.9601C40.0485 58.6262 42.1816 57.8129 44.059 56.5784C45.9364 55.344 47.5117 53.719 48.6722 51.8195C49.8327 49.9201 50.5497 47.7933 50.7719 45.5912C50.9941 43.3891 50.716 41.1661 49.9576 39.0814C49.1991 36.9967 47.979 35.1017 46.3845 33.5321C44.7901 31.9624 42.8607 30.7569 40.7344 30.0017V30.0097Z" stroke="#1D1D1B" stroke-width="0.702624" stroke-miterlimit="10"/>
<path id="Vector_4" d="M27.6075 54.9934C27.6075 54.9934 51.0228 54.1909 44.5905 35.3708" stroke="#1D1D1B" stroke-width="0.702624" stroke-miterlimit="10" stroke-linecap="round"/>
<path id="Vector_5" d="M33.7607 46.9199L32.6285 54.3436L39.7582 56.9037" stroke="#1D1D1B" stroke-width="0.702624" stroke-miterlimit="10" stroke-linecap="round"/>
<path id="Vector_6" d="M39.8646 43.509L39.963 51.4383L47.347 51.3902" stroke="#1D1D1B" stroke-width="0.702624" stroke-miterlimit="10" stroke-linecap="round"/>
<path id="Vector_7" d="M42.9905 39.6005L45.0908 45.0659L49.2422 42.8589" stroke="#1D1D1B" stroke-width="0.702624" stroke-miterlimit="10" stroke-linecap="round"/>
</g>
<line id="Line 1" x1="12.5312" y1="59.8358" x2="59.242" y2="13.125" stroke="#E4BB52" stroke-width="2" stroke-linecap="round"/>
</g>
</svg>
