<svg width="40" height="43" viewBox="0 0 40 43" fill="none" xmlns="http://www.w3.org/2000/svg">
<g id="Group 12">
<path id="Vector" d="M0 13.8764C0 14.3192 0.30827 14.7025 0.741259 14.7967C6.58191 16.0687 11.1773 20.6675 12.4484 26.512C12.5426 26.9448 12.9257 27.2533 13.3681 27.2533C13.8109 27.2533 14.1936 26.9448 14.2877 26.512C15.5589 20.6675 20.1542 16.0687 25.9949 14.7967C26.4274 14.7025 26.7362 14.3192 26.7362 13.8764C26.7362 13.4337 26.4274 13.0503 25.9949 12.9562C24.3641 12.6011 22.8105 11.9832 21.3765 11.1194C20.9312 10.852 20.3524 10.9952 20.0846 11.4412C19.8164 11.8866 19.9604 12.4655 20.4055 12.7339C21.1322 13.1719 21.8867 13.5529 22.6641 13.8769C18.4679 15.6232 15.1128 18.9815 13.3676 23.1801C11.6224 18.9815 8.26632 15.6232 4.07057 13.8769C8.2668 12.1306 11.6229 8.77182 13.3681 4.57278C14.1564 6.46836 15.2836 8.21983 16.7021 9.73579C17.0575 10.1154 17.6533 10.1356 18.0326 9.77965C18.4119 9.42407 18.4317 8.82784 18.0764 8.44824C16.1834 6.42504 14.8732 3.93323 14.2877 1.24128C14.1936 0.808473 13.8109 0.5 13.3681 0.5C12.9257 0.5 12.5426 0.808473 12.4484 1.24128C11.1768 7.08578 6.58144 11.6846 0.741259 12.9566C0.30874 13.0503 0 13.4333 0 13.8764Z" fill="#1D1D1B"/>
<path id="Vector_2" d="M40 26.8601C40 26.4174 39.6918 26.034 39.2592 25.9398C35.5322 25.1274 32.6001 22.1934 31.7887 18.4645C31.6947 18.0317 31.312 17.7231 30.8691 17.7231C30.4267 17.7231 30.0436 18.0317 29.9495 18.4645C29.1381 22.1934 26.2055 25.1274 22.4786 25.9398C22.046 26.034 21.7377 26.4174 21.7377 26.8601C21.7377 27.3028 22.0465 27.6862 22.479 27.7803C23.9206 28.0945 25.2972 28.7476 26.4602 29.6698C26.8677 29.9933 27.4603 29.9246 27.7826 29.5167C28.1055 29.1094 28.0373 28.5169 27.6297 28.1933C26.9764 27.6748 26.2662 27.2279 25.5174 26.8611C27.8415 25.7209 29.7297 23.8314 30.8695 21.5072C32.0086 23.8314 33.8963 25.7199 36.2189 26.8601C33.8963 27.9998 32.0086 29.8893 30.8695 32.2125C30.6757 31.8178 30.4592 31.4331 30.2201 31.0591C29.9396 30.6211 29.3574 30.493 28.9198 30.7742C28.482 31.0553 28.3545 31.6375 28.635 32.0759C29.2614 33.0541 29.7038 34.124 29.95 35.2562C30.0441 35.689 30.4272 35.9975 30.8695 35.9975C31.3125 35.9975 31.6951 35.689 31.7892 35.2562C32.6006 31.5268 35.5327 28.5927 39.2597 27.7808C39.6913 27.6862 40 27.3028 40 26.8601Z" fill="#1D1D1B"/>
<path id="Vector_3" d="M16.9579 30.4219C16.8638 29.9891 16.4807 29.6807 16.0383 29.6807C15.5954 29.6807 15.2128 29.9891 15.1187 30.4219C14.6033 32.7908 12.741 34.6543 10.3742 35.1701C9.94165 35.2643 9.63292 35.6476 9.63292 36.0902C9.63292 36.533 9.94117 36.9163 10.3737 37.0105C12.741 37.5267 14.6033 39.3902 15.1187 41.7587C15.2128 42.1915 15.5954 42.4999 16.0383 42.4999C16.4807 42.4999 16.8638 42.1915 16.9579 41.7587C17.4733 39.3902 19.3356 37.5267 21.7029 37.0105C22.1354 36.9163 22.4437 36.533 22.4437 36.0902C22.4437 35.6476 22.135 35.2643 21.7024 35.1701C19.3356 34.6548 17.4733 32.7913 16.9579 30.4219ZM16.0379 39.0003C15.3347 37.7984 14.3312 36.7939 13.1302 36.0902C14.3312 35.3872 15.3347 34.3826 16.0379 33.1807C16.7409 34.3826 17.7444 35.3872 18.9455 36.0902C17.7449 36.7944 16.7414 37.7984 16.0379 39.0003Z" fill="#1D1D1B"/>
<path id="Vector_4" d="M6.46746 28.5924C6.42981 28.5411 6.39215 28.4935 6.3498 28.4465C5.99682 28.0979 5.37086 28.0979 5.01789 28.4465C4.97553 28.4935 4.93317 28.5407 4.90022 28.5924C4.86728 28.64 4.83904 28.6965 4.81551 28.7526C4.79198 28.8091 4.77315 28.8703 4.75903 28.932C4.74962 28.988 4.7402 29.0545 4.7402 29.1157C4.7402 29.2381 4.76374 29.3606 4.8108 29.4736C4.86257 29.5866 4.92846 29.6902 5.01789 29.7797C5.19673 29.9586 5.43205 30.0576 5.68149 30.0576C5.93563 30.0576 6.17095 29.9586 6.3498 29.7797C6.43922 29.6902 6.50511 29.5866 6.55217 29.4736C6.59924 29.3606 6.62277 29.2381 6.62277 29.1157C6.62277 29.0545 6.61806 28.988 6.60394 28.932C6.59453 28.8703 6.5757 28.8091 6.55217 28.7526C6.52864 28.6961 6.5004 28.6442 6.46746 28.5924Z" fill="#1D1D1B"/>
<path id="Vector_5" d="M29.5664 9.1239C29.5335 9.07212 29.4911 9.02498 29.4487 8.98264C29.4064 8.94022 29.3593 8.89781 29.3075 8.86484C29.2558 8.83194 29.1993 8.79897 29.1428 8.77536C29.0863 8.75655 29.0299 8.73775 28.9687 8.72406C28.8463 8.70005 28.7193 8.70005 28.6016 8.72406C28.5404 8.73775 28.4792 8.75655 28.4227 8.77536C28.3663 8.79937 28.3145 8.83194 28.2627 8.86484C28.211 8.89781 28.1639 8.94022 28.1168 8.98264C28.0745 9.02498 28.0368 9.07164 27.9992 9.1239C27.9663 9.17568 27.938 9.23218 27.9145 9.28876C27.8909 9.34526 27.8721 9.40176 27.8627 9.46299C27.8485 9.52421 27.8438 9.58591 27.8438 9.64714C27.8438 9.77431 27.8674 9.89627 27.9145 10.0098C27.9616 10.1232 28.0274 10.2264 28.1168 10.3159C28.2957 10.4901 28.531 10.589 28.7852 10.589C29.0346 10.589 29.2699 10.4901 29.4487 10.3159C29.6276 10.1369 29.7264 9.90139 29.7264 9.64714C29.7264 9.58591 29.717 9.52421 29.7076 9.46299C29.6935 9.40176 29.6746 9.34526 29.6511 9.28876C29.6276 9.23218 29.5994 9.17568 29.5664 9.1239Z" fill="#1D1D1B"/>
<path id="Vector_6" d="M23.9606 35.5762C23.9935 35.628 24.0359 35.6751 24.0783 35.7227C24.1677 35.8074 24.2712 35.8781 24.3842 35.9252C24.4972 35.9723 24.6195 35.9958 24.7419 35.9958C24.8689 35.9958 24.9913 35.9718 25.1043 35.9252C25.2172 35.8781 25.3208 35.8074 25.4101 35.7227C25.4525 35.6751 25.4949 35.6285 25.5279 35.5762C25.5608 35.5249 25.589 35.4726 25.6125 35.4161C25.6361 35.3596 25.6549 35.2984 25.6643 35.2419C25.6784 35.1806 25.6832 35.1194 25.6832 35.054C25.6832 34.9922 25.6784 34.931 25.6643 34.8698C25.6549 34.8086 25.6361 34.7521 25.6125 34.6956C25.589 34.6391 25.5608 34.583 25.5279 34.5307C25.4902 34.4789 25.4525 34.4318 25.4101 34.3895C25.0572 34.0362 24.4312 34.0362 24.0783 34.3895C24.0359 34.4318 23.9935 34.4784 23.9606 34.5307C23.9277 34.5825 23.8994 34.6386 23.8759 34.6956C23.8524 34.7521 23.8335 34.8086 23.8194 34.8698C23.81 34.931 23.8006 34.9922 23.8006 35.054C23.8006 35.1199 23.81 35.1811 23.8194 35.2419C23.8335 35.2984 23.8524 35.3596 23.8712 35.4161C23.8947 35.4726 23.9277 35.5245 23.9606 35.5762Z" fill="#1D1D1B"/>
<path id="Vector_7" d="M19.88 22.0222C19.9129 22.074 19.9552 22.1212 19.9976 22.164C20.0447 22.2111 20.0918 22.2487 20.1435 22.2817C20.1952 22.3194 20.247 22.3477 20.3035 22.3708C20.36 22.3938 20.4212 22.4131 20.4777 22.4226C20.5389 22.4366 20.6 22.4414 20.6659 22.4414C20.9154 22.4414 21.1507 22.3425 21.3296 22.1635C21.3718 22.1207 21.4142 22.074 21.4472 22.0218C21.4801 21.9705 21.5131 21.9181 21.5319 21.8616C21.5554 21.8051 21.5742 21.7439 21.5883 21.6827C21.5977 21.6262 21.6072 21.5602 21.6072 21.499C21.6072 21.4378 21.5977 21.3766 21.5883 21.3149C21.5742 21.2536 21.5554 21.1924 21.5319 21.1359C21.5084 21.0794 21.4801 21.028 21.4472 20.9758C21.4142 20.9245 21.3718 20.8769 21.3296 20.8345C21.2872 20.7874 21.2401 20.7498 21.1883 20.7168C21.1366 20.6838 21.0801 20.6508 21.0236 20.6273C20.9671 20.6037 20.9107 20.5849 20.8495 20.5759C20.5436 20.5147 20.2188 20.6136 19.9976 20.835C19.9552 20.8773 19.9176 20.9245 19.88 20.9762C19.847 21.028 19.8187 21.0799 19.7952 21.1364C19.7717 21.1929 19.7529 21.2541 19.7435 21.3153C19.7294 21.3775 19.7247 21.4387 19.7247 21.5C19.7247 21.5612 19.7294 21.6271 19.7435 21.6836C19.7529 21.7449 19.7717 21.8061 19.7952 21.8626C19.8187 21.9191 19.847 21.971 19.88 22.0222Z" fill="#1D1D1B"/>
</g>
</svg>
