<svg width="71" height="70" viewBox="0 0 71 70" fill="none" xmlns="http://www.w3.org/2000/svg">
<g id="Group 2">
<circle id="Ellipse 5" cx="35.5" cy="35" r="34" fill="white" stroke="#E4BB52" stroke-width="2"/>
<g id="Group 1">
<path id="Vector" d="M35.5677 8.74994C35.5677 8.74994 16.3758 28.9 35.5677 53.0892C35.5677 53.0892 53.7029 31.4554 35.5677 8.74994Z" stroke="#1D1D1B" stroke-width="0.843149" stroke-miterlimit="10"/>
<path id="Vector_2" d="M35.5405 12.9999V48.5739" stroke="#1D1D1B" stroke-width="0.843149" stroke-miterlimit="10" stroke-linecap="round"/>
<path id="Vector_3" d="M29.1462 32.8934L35.6127 38.8194" stroke="#1D1D1B" stroke-width="0.843149" stroke-miterlimit="10" stroke-linecap="round"/>
<path id="Vector_4" d="M30.0855 24.5768L35.2515 29.6235" stroke="#1D1D1B" stroke-width="0.843149" stroke-miterlimit="10" stroke-linecap="round"/>
<path id="Vector_5" d="M35.4052 26.2256L40.4357 21.3896" stroke="#1D1D1B" stroke-width="0.843149" stroke-miterlimit="10" stroke-linecap="round"/>
<path id="Vector_6" d="M40.7278 38.2621C40.8957 38.1007 40.901 37.8339 40.7396 37.666C40.5782 37.4982 40.3114 37.4929 40.1435 37.6543L40.7278 38.2621ZM35.6973 43.0981L40.7278 38.2621L40.1435 37.6543L35.113 42.4903L35.6973 43.0981Z" fill="#1D1D1B"/>
<path id="Vector_7" d="M35.5315 35.1282L41.5194 29.4953" stroke="#1D1D1B" stroke-width="0.843149" stroke-miterlimit="10" stroke-linecap="round"/>
<path id="Vector_8" d="M61.7501 37.7569C61.7501 37.7569 39.632 36.7678 35.4956 61.2501C35.4956 61.2501 57.9118 60.8196 61.7501 37.7569Z" stroke="#1D1D1B" stroke-width="0.843149" stroke-miterlimit="10"/>
<path id="Vector_9" d="M59.212 39.9917L38.1506 58.8411" stroke="#1D1D1B" stroke-width="0.843149" stroke-miterlimit="10" stroke-linecap="round"/>
<path id="Vector_10" d="M44.4698 46.6461C44.4725 46.4133 44.2859 46.2224 44.0531 46.2197C43.8203 46.217 43.6294 46.4036 43.6267 46.6364L44.4698 46.6461ZM43.6267 46.6364L43.5454 53.7164L44.3885 53.7261L44.4698 46.6461L43.6267 46.6364Z" fill="#1D1D1B"/>
<path id="Vector_11" d="M49.8881 42.8218C49.8982 42.5892 49.7178 42.3924 49.4852 42.3824C49.2526 42.3723 49.0559 42.5526 49.0458 42.7852L49.8881 42.8218ZM49.0458 42.7852L48.7929 48.6104L49.6352 48.647L49.8881 42.8218L49.0458 42.7852Z" fill="#1D1D1B"/>
<path id="Vector_12" d="M56.8077 47.8395C57.0396 47.8607 57.2447 47.6898 57.2658 47.458C57.2869 47.2261 57.1161 47.021 56.8842 46.9999L56.8077 47.8395ZM51.2804 47.3358L56.8077 47.8395L56.8842 46.9999L51.357 46.4961L51.2804 47.3358Z" fill="#1D1D1B"/>
<path id="Vector_13" d="M46.9903 56.6232C47.2221 56.6443 47.4272 56.4735 47.4484 56.2416C47.4695 56.0097 47.2987 55.8046 47.0668 55.7835L46.9903 56.6232ZM41.463 56.1194L46.9903 56.6232L47.0668 55.7835L41.5395 55.2798L41.463 56.1194Z" fill="#1D1D1B"/>
<path id="Vector_14" d="M52.5767 52.7942C52.8083 52.8177 53.0151 52.6489 53.0386 52.4173C53.062 52.1856 52.8933 51.9788 52.6616 51.9554L52.5767 52.7942ZM46.065 52.1348L52.5767 52.7942L52.6616 51.9554L46.1499 51.2959L46.065 52.1348Z" fill="#1D1D1B"/>
<path id="Vector_15" d="M9.25 37.7569C9.25 37.7569 31.3681 36.7678 35.4954 61.2501C35.4954 61.2501 13.0884 60.8196 9.25 37.7569Z" stroke="#1D1D1B" stroke-width="0.843149" stroke-miterlimit="10"/>
<path id="Vector_16" d="M11.7878 39.9917L32.8492 58.8411" stroke="#1D1D1B" stroke-width="0.843149" stroke-miterlimit="10" stroke-linecap="round"/>
<path id="Vector_17" d="M26.9517 46.6412L27.0329 53.7212" stroke="#1D1D1B" stroke-width="0.843149" stroke-miterlimit="10" stroke-linecap="round"/>
<path id="Vector_18" d="M21.5237 42.8035L21.7766 48.6287" stroke="#1D1D1B" stroke-width="0.843149" stroke-miterlimit="10" stroke-linecap="round"/>
<path id="Vector_19" d="M19.6812 46.916L14.1539 47.4197" stroke="#1D1D1B" stroke-width="0.843149" stroke-miterlimit="10" stroke-linecap="round"/>
<path id="Vector_20" d="M29.4896 55.6996L23.9623 56.2033" stroke="#1D1D1B" stroke-width="0.843149" stroke-miterlimit="10" stroke-linecap="round"/>
<path id="Vector_21" d="M24.8928 51.7153L18.3811 52.3748" stroke="#1D1D1B" stroke-width="0.843149" stroke-miterlimit="10" stroke-linecap="round"/>
</g>
<line id="Line 1" x1="12.5312" y1="59.8358" x2="59.242" y2="13.125" stroke="#E4BB52" stroke-width="2" stroke-linecap="round"/>
</g>
</svg>
