<svg width="70" height="70" viewBox="0 0 70 70" fill="none" xmlns="http://www.w3.org/2000/svg">
<g id="Group 2">
<circle id="Ellipse 5" cx="35" cy="35" r="34" fill="white" stroke="#E4BB52" stroke-width="2"/>
<g id="Group 4">
<path id="Vector" d="M27.9895 40.6716V54.9522C27.9895 56.6225 28.649 58.2244 29.823 59.4054C30.997 60.5865 32.5893 61.25 34.2496 61.25C35.9099 61.25 37.5022 60.5865 38.6762 59.4054C39.8502 58.2244 40.5097 56.6225 40.5097 54.9522V40.6716" stroke="#1D1D1B" stroke-width="0.843149" stroke-miterlimit="10"/>
<path id="Vector_2" d="M39.5289 40.979H28.9637C28.6746 40.979 28.3884 40.9216 28.1214 40.8101C27.8544 40.6987 27.6119 40.5353 27.4078 40.3293C27.2037 40.1234 27.042 39.879 26.932 39.6101C26.822 39.3412 26.7657 39.0531 26.7666 38.7623C26.7657 38.4715 26.822 38.1834 26.932 37.9144C27.042 37.6455 27.2037 37.4011 27.4078 37.1952C27.6119 36.9893 27.8544 36.8259 28.1214 36.7144C28.3884 36.6029 28.6746 36.5455 28.9637 36.5455H39.5289C40.1132 36.5455 40.6737 36.7791 41.0869 37.1948C41.5002 37.6105 41.7323 38.1743 41.7323 38.7623C41.7323 39.0534 41.6753 39.3416 41.5646 39.6106C41.4539 39.8795 41.2915 40.1239 41.0869 40.3297C40.8823 40.5356 40.6394 40.6989 40.3721 40.8103C40.1047 40.9217 39.8182 40.979 39.5289 40.979Z" stroke="#1D1D1B" stroke-width="0.843149" stroke-miterlimit="10"/>
<g id="Group 8">
<path id="Vector_3" d="M34.3638 8.74994C34.3638 8.74994 23.1078 20.2596 34.3638 34.0277C34.3638 34.0277 44.9828 21.6954 34.3638 8.74994Z" stroke="#1D1D1B" stroke-width="0.843149" stroke-miterlimit="10"/>
<g id="Group 7">
<path id="Vector_4" d="M34.3435 12.6389V29.3861" stroke="#1D1D1B" stroke-width="0.562099" stroke-miterlimit="10" stroke-linecap="round"/>
<path id="Vector_5" d="M31.3056 22.0054L34.3752 24.7924" stroke="#1D1D1B" stroke-width="0.562099" stroke-miterlimit="10" stroke-linecap="round"/>
<path id="Vector_6" d="M31.7513 18.0909L34.2031 20.4678" stroke="#1D1D1B" stroke-width="0.562099" stroke-miterlimit="10" stroke-linecap="round"/>
<path id="Vector_7" d="M34.2796 18.8662L36.6678 16.5918" stroke="#1D1D1B" stroke-width="0.562099" stroke-miterlimit="10" stroke-linecap="round"/>
<path id="Vector_8" d="M34.2796 26.663L36.6678 24.3886" stroke="#1D1D1B" stroke-width="0.562099" stroke-miterlimit="10" stroke-linecap="round"/>
<path id="Vector_9" d="M34.3371 23.0562L37.1774 20.4038" stroke="#1D1D1B" stroke-width="0.562099" stroke-miterlimit="10" stroke-linecap="round"/>
</g>
</g>
<g id="Group 5">
<path id="Vector_10" d="M15.7536 18.4722C15.7536 18.4722 15.155 31.6893 29.4839 34.1495C29.4839 34.1495 29.2355 20.7914 15.7536 18.4722Z" stroke="#1D1D1B" stroke-width="0.843149" stroke-miterlimit="10"/>
<path id="Vector_11" d="M17.0658 20.0098L28.0767 32.567" stroke="#1D1D1B" stroke-width="0.562099" stroke-miterlimit="10" stroke-linecap="round"/>
<path id="Vector_12" d="M20.9504 29.0497L25.0835 29.101" stroke="#1D1D1B" stroke-width="0.562099" stroke-miterlimit="10" stroke-linecap="round"/>
<path id="Vector_13" d="M18.7085 25.8209L22.1092 25.9682" stroke="#1D1D1B" stroke-width="0.562099" stroke-miterlimit="10" stroke-linecap="round"/>
<path id="Vector_14" d="M21.1094 24.7188L21.4041 21.4257" stroke="#1D1D1B" stroke-width="0.562099" stroke-miterlimit="10" stroke-linecap="round"/>
<path id="Vector_15" d="M26.2425 30.5682L26.5372 27.2687" stroke="#1D1D1B" stroke-width="0.562099" stroke-miterlimit="10" stroke-linecap="round"/>
<path id="Vector_16" d="M23.9116 27.8197L24.2937 23.9436" stroke="#1D1D1B" stroke-width="0.562099" stroke-miterlimit="10" stroke-linecap="round"/>
</g>
<g id="Group 6">
<path id="Vector_17" d="M54.6413 20.42C54.6413 20.42 41.5288 19.8369 39.0833 34.2329C39.0833 34.2265 52.3614 33.9766 54.6413 20.42Z" stroke="#1D1D1B" stroke-width="0.843149" stroke-miterlimit="10"/>
<path id="Vector_18" d="M53.1383 21.7269L40.6562 32.8105" stroke="#1D1D1B" stroke-width="0.562099" stroke-miterlimit="10" stroke-linecap="round"/>
<path id="Vector_19" d="M44.153 25.635L44.1017 29.793" stroke="#1D1D1B" stroke-width="0.562099" stroke-miterlimit="10" stroke-linecap="round"/>
<path id="Vector_20" d="M47.3632 23.3799L47.2158 26.8011" stroke="#1D1D1B" stroke-width="0.562099" stroke-miterlimit="10" stroke-linecap="round"/>
<path id="Vector_21" d="M48.4575 25.7952L51.7309 26.0899" stroke="#1D1D1B" stroke-width="0.562099" stroke-miterlimit="10" stroke-linecap="round"/>
<path id="Vector_22" d="M42.6433 30.959L45.9231 31.2537" stroke="#1D1D1B" stroke-width="0.562099" stroke-miterlimit="10" stroke-linecap="round"/>
<path id="Vector_23" d="M45.3754 28.614L49.2282 29.0048" stroke="#1D1D1B" stroke-width="0.562099" stroke-miterlimit="10" stroke-linecap="round"/>
</g>
<path id="Vector_24" d="M34.2496 51.8128V53.5875" stroke="#1D1D1B" stroke-width="0.843149" stroke-miterlimit="10"/>
<path id="Vector_25" d="M34.2496 40.9982V50.6724" stroke="#1D1D1B" stroke-width="0.843149" stroke-miterlimit="10"/>
</g>
<line id="Line 1" x1="12.0312" y1="59.8358" x2="58.742" y2="13.125" stroke="#E4BB52" stroke-width="2" stroke-linecap="round"/>
</g>
</svg>
